<?xml version="1.0" encoding="UTF-8"?>
<svg id="Layer_2" data-name="Layer 2" xmlns="http://www.w3.org/2000/svg" viewBox="0 0 925.47 270">
  <defs>
    <style>
      .cls-1 {
        fill: #fff;
        stroke-width: 0px;
      }
    </style>
  </defs>
  <g id="Layer_2-2" data-name="Layer 2">
    <g>
      <path class="cls-1" d="m67.5,205.5c0,1,.06,1.88.19,2.62.12.75.25,1.38.38,1.88.12.5.38.88.75,1.12.38.25.69.38.94.38.5,0,.87-.12,1.12-.38s.43-.62.56-1.12c.12-.5.25-1.12.38-1.88.12-.75.19-1.62.19-2.62v-66.75h67.5v61.5c0,11.25-1.56,21.19-4.69,29.81-3.13,8.62-7.75,15.88-13.88,21.75-6.13,5.88-13.56,10.38-22.31,13.5-8.75,3.12-18.75,4.69-30,4.69s-20.75-1.5-29.25-4.5c-8.5-3-15.69-7.44-21.56-13.31-5.88-5.87-10.31-13.18-13.31-21.94-3-8.75-4.5-18.75-4.5-30V69.38c0-11.25,1.5-21.25,4.5-30,3-8.75,7.44-16,13.31-21.75,5.87-5.75,13.06-10.12,21.56-13.12C47.87,1.5,57.62,0,68.62,0s21.25,1.56,30,4.69c8.75,3.13,16.18,7.63,22.31,13.5,6.12,5.88,10.75,13.12,13.88,21.75,3.12,8.62,4.69,18.44,4.69,29.44v61.88h-67.5v-66.75c0-1.25-.06-2.25-.19-3-.13-.75-.25-1.31-.38-1.69-.13-.38-.32-.69-.56-.94-.25-.25-.63-.38-1.12-.38-.25,0-.56.13-.94.38-.38.25-.63.56-.75.94-.13.38-.25.94-.38,1.69-.13.75-.19,1.75-.19,3v141Z"/>
      <path class="cls-1" d="m211.5,3.75v262.5h-67.5V3.75h67.5Z"/>
      <path class="cls-1" d="m361.49,3.75v262.5h-72.38l-17.25-142.5h-3.75l15.38,142.5h-67.5V3.75h72.38l18.75,144h3.75L293.99,3.75h67.5Z"/>
      <path class="cls-1" d="m433.49,62.25v36.38h30v58.5h-30v50.62h30v58.5h-97.5V3.75h97.5v58.5h-30Z"/>
      <path class="cls-1" d="m536.98,3.75c11.25,0,21.25,1.38,30,4.12,8.75,2.75,16.12,6.81,22.12,12.19,6,5.38,10.56,12.19,13.69,20.44,3.12,8.25,4.69,17.88,4.69,28.88v131.25c0,11-1.56,20.62-4.69,28.88-3.13,8.25-7.69,15.06-13.69,20.44-6,5.38-13.38,9.44-22.12,12.19-8.75,2.75-18.75,4.12-30,4.12h-69V3.75h69Zm-1.51,204h1.14c.75,0,1.37-.06,1.88-.19.5-.12.87-.38,1.12-.75.25-.38.38-1,.38-1.88V65.06c0-.87-.13-1.5-.38-1.88-.25-.38-.63-.62-1.12-.75-.5-.12-1.12-.19-1.88-.19h-1.14v145.5Z"/>
      <path class="cls-1" d="m679.48,3.75v262.5h-67.5V3.75h67.5Z"/>
      <path class="cls-1" d="m755.97,93.75v-29.25c0-2-.19-3.5-.56-4.5-.38-1-.94-1.5-1.69-1.5s-1.31.5-1.69,1.5c-.38,1-.56,2.5-.56,4.5v21c0,2.75.19,5.06.56,6.94s1.5,3.75,3.38,5.62,4.81,4.07,8.81,6.56c4,2.5,9.62,5.75,16.88,9.75l10.12,5.62c6.5,3.5,11.81,7.38,15.94,11.62,4.12,4.25,7.37,9.25,9.75,15,2.37,5.75,4.06,12.56,5.06,20.44,1,7.88,1.5,17.31,1.5,28.31v4.88c0,22.5-6.13,39.75-18.38,51.75-12.25,12-29.75,18-52.5,18s-39.56-5.94-51.19-17.81c-11.62-11.87-17.44-29.19-17.44-51.94v-24h67.5v29.25c0,2,.19,3.5.56,4.5.38,1,.94,1.5,1.69,1.5s1.31-.43,1.69-1.31c.38-.87.56-2.31.56-4.31v-22.12c0-2.75-.19-5-.56-6.75-.38-1.75-1.38-3.5-3-5.25-1.63-1.75-4.25-3.75-7.88-6-3.63-2.25-8.69-5.25-15.19-9l-12-6.75c-6.5-3.75-11.94-7.81-16.31-12.19-4.38-4.37-7.82-9.56-10.31-15.56-2.5-6-4.25-13-5.25-21-1-8-1.5-17.5-1.5-28.5v-3.38c0-22.75,5.87-40,17.62-51.75S730.34,0,752.6,0s40.25,6,52.5,18c12.25,12,18.38,29.13,18.38,51.38v24.38h-67.5Z"/>
      <path class="cls-1" d="m895.47,62.25v36.38h30v58.5h-30v50.62h30v58.5h-97.5V3.75h97.5v58.5h-30Z"/>
    </g>
  </g>
</svg>