<svg xmlns="http://www.w3.org/2000/svg" id="logo" fill="#fff" viewBox="0 0 376 248"><path d="M748.66,668.57,700,600l88-124H688L600,600.5l86.25,121Z" transform="translate(-412 -476)"/><path d="M692.64,724H788l-35.85-50.52Z" transform="translate(-412 -476)"/><path d="M534.5,535a65.31,65.31,0,0,1,46.88,19.77l47.47-36.94a124,124,0,0,0-185.73,0l44.68,36.73A65.26,65.26,0,0,1,534.5,535Z" transform="translate(-412 -476)"/><path d="M632.73,522.42l-47.35,36.84a65.5,65.5,0,1,1-101.6-.2l-44.53-36.61a124,124,0,1,0,193.48,0Z" transform="translate(-412 -476)"/></svg>